<?xml version="1.0" encoding="utf-8"?>
<!-- Generator: Adobe Illustrator 18.0.0, SVG Export Plug-In . SVG Version: 6.00 Build 0)  -->
<!DOCTYPE svg PUBLIC "-//W3C//DTD SVG 1.1//EN" "http://www.w3.org/Graphics/SVG/1.1/DTD/svg11.dtd">
<svg version="1.1" id="Layer_1" xmlns="http://www.w3.org/2000/svg" xmlns:xlink="http://www.w3.org/1999/xlink" x="0px" y="0px"
	 viewBox="0 0 300 250" enable-background="new 0 0 300 250" xml:space="preserve">
<path fill="#BA1C21" d="M150,25L150,25C94.8,25,50,69.8,50,125v0c0,55.2,44.8,100,100,100h0c55.2,0,100-44.8,100-100v0
	C250,69.8,205.2,25,150,25z M225,125c0,41.4-33.6,75-75,75h0c-41.4,0-75-33.6-75-75v0c0-41.4,33.6-75,75-75h0
	C191.4,50,225,83.6,225,125L225,125z"/>
<path fill="#BA1C21" d="M150,75L150,75c-27.6,0-50,22.4-50,50v0c0,27.6,22.4,50,50,50h0c27.6,0,50-22.4,50-50v0
	C200,97.4,177.6,75,150,75z M175,125c0,13.8-11.2,25-25,25s-25-11.2-25-25v0c0-13.8,11.2-25,25-25S175,111.2,175,125L175,125z"/>
<path fill="#BA1C21" d="M150,135L150,135c-5.5,0-10-4.5-10-10v0c0-5.5,4.5-10,10-10h0c5.5,0,10,4.5,10,10v0
	C160,130.5,155.5,135,150,135z"/>
</svg>
