<?xml version="1.0" encoding="utf-8"?>
<!-- Generator: Adobe Illustrator 18.0.0, SVG Export Plug-In . SVG Version: 6.00 Build 0)  -->
<!DOCTYPE svg PUBLIC "-//W3C//DTD SVG 1.1//EN" "http://www.w3.org/Graphics/SVG/1.1/DTD/svg11.dtd">
<svg version="1.1" id="Layer_1" xmlns="http://www.w3.org/2000/svg" xmlns:xlink="http://www.w3.org/1999/xlink" x="0px" y="0px"
	 viewBox="0 0 300 250" enable-background="new 0 0 300 250" xml:space="preserve">
<path d="M150,25C94.8,25,50,69.8,50,125s44.8,100,100,100s100-44.8,100-100S205.2,25,150,25z M150,200c-41.4,0-75-33.6-75-75
	c0-41.4,33.6-75,75-75s75,33.6,75,75C225,166.4,191.4,200,150,200z"/>
<path d="M150,75c-27.6,0-50,22.4-50,50s22.4,50,50,50c27.6,0,50-22.4,50-50S177.6,75,150,75z M150,150c-13.8,0-25-11.2-25-25
	s11.2-25,25-25s25,11.2,25,25S163.8,150,150,150z"/>
<path d="M150,135L150,135c-5.5,0-10-4.5-10-10l0,0c0-5.5,4.5-10,10-10l0,0c5.5,0,10,4.5,10,10l0,0C160,130.5,155.5,135,150,135z"/>
</svg>
